<svg width="142" height="14" viewBox="0 0 142 14" fill="none" xmlns="http://www.w3.org/2000/svg">
<path d="M2.49609 5.24161C2.49609 4.69805 2.62867 4.20255 2.89382 3.7551C3.15897 3.30766 3.51527 2.95136 3.96271 2.68621C4.41016 2.42106 4.90566 2.28849 5.44922 2.28849C5.91986 2.28849 6.35405 2.38957 6.75178 2.59175C7.15282 2.79393 7.48426 3.07068 7.74609 3.42201C8.00793 3.77002 8.17034 4.16443 8.23331 4.60525H7.03018C6.9639 4.26386 6.77995 3.98546 6.47834 3.77002C6.17673 3.55127 5.83369 3.44189 5.44922 3.44189C5.11778 3.44189 4.81617 3.5231 4.54439 3.6855C4.27261 3.84791 4.05552 4.065 3.89311 4.33678C3.73071 4.60856 3.6495 4.91017 3.6495 5.24161C3.6495 5.57305 3.73071 5.87466 3.89311 6.14644C4.05552 6.41822 4.27261 6.63531 4.54439 6.79772C4.81617 6.96012 5.11778 7.04133 5.44922 7.04133C5.83369 7.04133 6.1585 6.93361 6.42365 6.71817C6.69212 6.49942 6.86115 6.21936 6.93075 5.87797H8.13388C8.0709 6.31879 7.91679 6.71486 7.67152 7.06618C7.42625 7.4142 7.11139 7.68929 6.72692 7.89147C6.34576 8.09365 5.91986 8.19474 5.44922 8.19474C4.90566 8.19474 4.41016 8.06216 3.96271 7.79701C3.51527 7.53186 3.15897 7.17556 2.89382 6.72812C2.62867 6.28067 2.49609 5.78517 2.49609 5.24161ZM5.3995 10.4916C4.67697 10.4916 3.99751 10.3557 3.36115 10.0839C2.7281 9.81216 2.16963 9.43598 1.68572 8.95539C1.20514 8.47149 0.827296 7.91301 0.552202 7.27996C0.280421 6.64691 0.146188 5.96746 0.149503 5.24161C0.152817 4.51576 0.290365 3.83631 0.562145 3.20326C0.83724 2.57021 1.21508 2.01339 1.69567 1.5328C2.17625 1.0489 2.73307 0.671061 3.36612 0.399281C3.99917 0.1275 4.67697 -0.00838971 5.3995 -0.00838971C6.12536 -0.00838971 6.80481 0.1275 7.43786 0.399281C8.07422 0.671061 8.63104 1.0489 9.10831 1.5328C9.5889 2.01339 9.96508 2.57021 10.2369 3.20326C10.5086 3.83631 10.6462 4.51576 10.6495 5.24161C10.6528 5.96746 10.5186 6.64691 10.2468 7.27996C9.97502 7.91301 9.59884 8.47149 9.11825 8.95539C8.63767 9.43598 8.07919 9.81216 7.44283 10.0839C6.80646 10.3557 6.12536 10.4916 5.3995 10.4916ZM5.3995 9.3382C5.96626 9.3382 6.49822 9.23214 6.99538 9.02002C7.49254 8.8079 7.92839 8.51457 8.30291 8.14005C8.67744 7.76552 8.97076 7.33134 9.18288 6.83749C9.395 6.34033 9.49941 5.81003 9.49609 5.24658C9.49278 4.67982 9.38506 4.14786 9.17294 3.6507C8.96082 3.15354 8.6675 2.7177 8.29297 2.34317C7.91844 1.96865 7.48426 1.67532 6.99041 1.4632C6.49657 1.25108 5.96626 1.14502 5.3995 1.14502C4.83606 1.14502 4.30741 1.25108 3.81357 1.4632C3.31972 1.67532 2.88554 1.9703 2.51101 2.34814C2.13648 2.72267 1.8415 3.15851 1.62607 3.65567C1.41394 4.14952 1.30623 4.67982 1.30291 5.24658C1.2996 5.80671 1.404 6.33536 1.61612 6.83252C1.82824 7.32636 2.12157 7.76055 2.49609 8.13508C2.87393 8.5096 3.30978 8.80458 3.80362 9.02002C4.30078 9.23214 4.83274 9.3382 5.3995 9.3382ZM16.7981 10.3325V9.43763L20.1589 5.75866C20.5533 5.32778 20.8781 4.95326 21.1333 4.63508C21.3886 4.31358 21.5775 4.01197 21.7001 3.73025C21.8261 3.44521 21.889 3.14691 21.889 2.83536C21.889 2.47741 21.8029 2.16751 21.6305 1.90567C21.4615 1.64384 21.2295 1.44166 20.9345 1.29914C20.6395 1.15662 20.3081 1.08536 19.9402 1.08536C19.5491 1.08536 19.2077 1.16656 18.916 1.32897C18.6277 1.48806 18.4039 1.71178 18.2449 2.00013C18.0891 2.28849 18.0112 2.62655 18.0112 3.01434H16.8379C16.8379 2.41775 16.9754 1.89407 17.2505 1.44331C17.5256 0.992557 17.9002 0.641231 18.3741 0.389337C18.8514 0.137443 19.3867 0.0114964 19.9799 0.0114964C20.5765 0.0114964 21.1052 0.137443 21.5659 0.389337C22.0266 0.641231 22.3878 0.980956 22.6497 1.40851C22.9115 1.83607 23.0424 2.31169 23.0424 2.83536C23.0424 3.20989 22.9745 3.57613 22.8386 3.93408C22.706 4.28872 22.474 4.68479 22.1426 5.12229C21.8145 5.55648 21.3587 6.08678 20.7754 6.7132L18.4885 9.15922V9.23877H23.2214V10.3325H16.7981ZM28.5957 10.4717C27.8467 10.4717 27.2086 10.2679 26.6816 9.86022C26.1547 9.44923 25.752 8.8543 25.4735 8.07542C25.1951 7.29322 25.0559 6.34862 25.0559 5.24161C25.0559 4.14123 25.1951 3.2016 25.4735 2.42272C25.7553 1.64052 26.1596 1.04393 26.6866 0.632945C27.2169 0.218646 27.8533 0.0114964 28.5957 0.0114964C29.3381 0.0114964 29.9728 0.218646 30.4998 0.632945C31.0301 1.04393 31.4345 1.64052 31.7129 2.42272C31.9946 3.2016 32.1355 4.14123 32.1355 5.24161C32.1355 6.34862 31.9963 7.29322 31.7179 8.07542C31.4395 8.8543 31.0368 9.44923 30.5098 9.86022C29.9828 10.2679 29.3448 10.4717 28.5957 10.4717ZM28.5957 9.37797C29.3381 9.37797 29.9148 9.02002 30.3258 8.30411C30.7368 7.5882 30.9423 6.56737 30.9423 5.24161C30.9423 4.35998 30.8478 3.60927 30.6589 2.98948C30.4733 2.36969 30.2048 1.89739 29.8535 1.57258C29.5055 1.24777 29.0862 1.08536 28.5957 1.08536C27.8599 1.08536 27.2849 1.44829 26.8706 2.17414C26.4563 2.89668 26.2491 3.91917 26.2491 5.24161C26.2491 6.12324 26.3419 6.87229 26.5275 7.48877C26.7131 8.10525 26.9799 8.57423 27.3279 8.89573C27.6793 9.21723 28.1019 9.37797 28.5957 9.37797ZM34.0247 10.3325V9.43763L37.3855 5.75866C37.7799 5.32778 38.1047 4.95326 38.3599 4.63508C38.6151 4.31358 38.804 4.01197 38.9267 3.73025C39.0526 3.44521 39.1156 3.14691 39.1156 2.83536C39.1156 2.47741 39.0294 2.16751 38.8571 1.90567C38.688 1.64384 38.456 1.44166 38.161 1.29914C37.8661 1.15662 37.5346 1.08536 37.1667 1.08536C36.7756 1.08536 36.4342 1.16656 36.1426 1.32897C35.8542 1.48806 35.6305 1.71178 35.4714 2.00013C35.3156 2.28849 35.2377 2.62655 35.2377 3.01434H34.0645C34.0645 2.41775 34.202 1.89407 34.4771 1.44331C34.7522 0.992557 35.1267 0.641231 35.6007 0.389337C36.0779 0.137443 36.6132 0.0114964 37.2065 0.0114964C37.8031 0.0114964 38.3317 0.137443 38.7924 0.389337C39.2531 0.641231 39.6144 0.980956 39.8762 1.40851C40.1381 1.83607 40.269 2.31169 40.269 2.83536C40.269 3.20989 40.2011 3.57613 40.0652 3.93408C39.9326 4.28872 39.7006 4.68479 39.3691 5.12229C39.041 5.55648 38.5853 6.08678 38.002 6.7132L35.715 9.15922V9.23877H40.448V10.3325H34.0247ZM45.6831 10.4717C45.0997 10.4717 44.5744 10.3557 44.1071 10.1237C43.6397 9.89171 43.2652 9.57352 42.9835 9.16917C42.7018 8.76481 42.5476 8.30411 42.5211 7.78706H43.7143C43.7607 8.24777 43.9695 8.62892 44.3407 8.93053C44.7153 9.22883 45.1627 9.37797 45.6831 9.37797C46.1007 9.37797 46.4719 9.2802 46.7967 9.08465C47.1248 8.8891 47.3817 8.62063 47.5673 8.27925C47.7562 7.93456 47.8507 7.54511 47.8507 7.11093C47.8507 6.6668 47.7529 6.27073 47.5574 5.92272C47.3651 5.57139 47.1 5.29464 46.7619 5.09246C46.4238 4.89028 46.0377 4.78754 45.6035 4.78422C45.292 4.78091 44.9721 4.82897 44.644 4.9284C44.3159 5.02452 44.0458 5.14881 43.8336 5.30127L42.6802 5.16206L43.2967 0.150701H48.5865V1.24445H44.3308L43.9728 4.24729H44.0325C44.2413 4.08157 44.5031 3.94403 44.818 3.83465C45.1329 3.72528 45.461 3.67059 45.8024 3.67059C46.4255 3.67059 46.9806 3.81974 47.4679 4.11803C47.9584 4.41301 48.3429 4.81737 48.6213 5.3311C48.903 5.84483 49.0439 6.43148 49.0439 7.09104C49.0439 7.74066 48.898 8.32068 48.6064 8.8311C48.318 9.3382 47.9203 9.73924 47.4132 10.0342C46.9061 10.3259 46.3294 10.4717 45.6831 10.4717ZM55.1353 0.150701H56.6069L60.0671 8.60241H60.1864L63.6467 0.150701H65.1183V10.3325H63.9648V2.59672H63.8654L60.6836 10.3325H59.57L56.3881 2.59672H56.2887V10.3325H55.1353V0.150701ZM69.6784 10.5115C69.1945 10.5115 68.7554 10.4204 68.361 10.2381C67.9666 10.0525 67.6533 9.78564 67.4213 9.43763C67.1893 9.08631 67.0733 8.66206 67.0733 8.16491C67.0733 7.72741 67.1595 7.37277 67.3319 7.10099C67.5042 6.82589 67.7346 6.61045 68.0229 6.45468C68.3113 6.2989 68.6294 6.1829 68.9775 6.10667C69.3288 6.02712 69.6818 5.96415 70.0364 5.91775C70.5004 5.85809 70.8766 5.81334 71.165 5.78351C71.4566 5.75037 71.6687 5.69568 71.8013 5.61945C71.9372 5.54322 72.0051 5.41064 72.0051 5.22172V5.18195C72.0051 4.69142 71.8709 4.31027 71.6025 4.03849C71.3373 3.76671 70.9346 3.63081 70.3944 3.63081C69.8342 3.63081 69.3951 3.75345 69.0769 3.99871C68.7587 4.24398 68.535 4.50581 68.4057 4.78422L67.2921 4.3865C67.4909 3.92248 67.7561 3.56121 68.0875 3.30269C68.4223 3.04085 68.7869 2.85856 69.1813 2.75581C69.579 2.64975 69.9701 2.59672 70.3546 2.59672C70.5998 2.59672 70.8816 2.62655 71.1998 2.68621C71.5212 2.74256 71.8311 2.86022 72.1294 3.0392C72.431 3.21817 72.6813 3.4883 72.8801 3.84956C73.079 4.21083 73.1784 4.69474 73.1784 5.30127V10.3325H72.0051V9.29843H71.9455C71.8659 9.46415 71.7334 9.64147 71.5478 9.83039C71.3622 10.0193 71.1152 10.1801 70.807 10.3126C70.4988 10.4452 70.1226 10.5115 69.6784 10.5115ZM69.8574 9.45752C70.3214 9.45752 70.7125 9.36637 71.0307 9.18408C71.3522 9.00179 71.5942 8.76647 71.7566 8.47812C71.9223 8.18976 72.0051 7.8865 72.0051 7.56831V6.49445C71.9554 6.55411 71.8461 6.6088 71.677 6.65851C71.5113 6.70492 71.3191 6.74635 71.1003 6.7828C70.8849 6.81595 70.6744 6.84578 70.4689 6.87229C70.2667 6.89549 70.1027 6.91538 69.9767 6.93195C69.6718 6.97172 69.3868 7.03635 69.1216 7.12584C68.8598 7.21202 68.6477 7.34294 68.4853 7.5186C68.3262 7.69095 68.2466 7.92627 68.2466 8.22456C68.2466 8.63224 68.3974 8.94047 68.699 9.14928C69.004 9.35477 69.3901 9.45752 69.8574 9.45752ZM76.4933 0.150701V10.3325H75.32V0.150701H76.4933ZM80.8894 10.5115C80.4055 10.5115 79.9663 10.4204 79.5719 10.2381C79.1775 10.0525 78.8643 9.78564 78.6323 9.43763C78.4003 9.08631 78.2843 8.66206 78.2843 8.16491C78.2843 7.72741 78.3704 7.37277 78.5428 7.10099C78.7151 6.82589 78.9455 6.61045 79.2338 6.45468C79.5222 6.2989 79.8404 6.1829 80.1884 6.10667C80.5397 6.02712 80.8927 5.96415 81.2473 5.91775C81.7114 5.85809 82.0875 5.81334 82.3759 5.78351C82.6676 5.75037 82.8797 5.69568 83.0123 5.61945C83.1481 5.54322 83.2161 5.41064 83.2161 5.22172V5.18195C83.2161 4.69142 83.0819 4.31027 82.8134 4.03849C82.5482 3.76671 82.1455 3.63081 81.6053 3.63081C81.0452 3.63081 80.606 3.75345 80.2878 3.99871C79.9696 4.24398 79.7459 4.50581 79.6167 4.78422L78.503 4.3865C78.7019 3.92248 78.967 3.56121 79.2985 3.30269C79.6332 3.04085 79.9978 2.85856 80.3922 2.75581C80.79 2.64975 81.181 2.59672 81.5655 2.59672C81.8108 2.59672 82.0925 2.62655 82.4107 2.68621C82.7322 2.74256 83.0421 2.86022 83.3404 3.0392C83.642 3.21817 83.8922 3.4883 84.0911 3.84956C84.29 4.21083 84.3894 4.69474 84.3894 5.30127V10.3325H83.2161V9.29843H83.1564C83.0769 9.46415 82.9443 9.64147 82.7587 9.83039C82.5731 10.0193 82.3262 10.1801 82.0179 10.3126C81.7097 10.4452 81.3335 10.5115 80.8894 10.5115ZM81.0684 9.45752C81.5324 9.45752 81.9235 9.36637 82.2417 9.18408C82.5632 9.00179 82.8051 8.76647 82.9675 8.47812C83.1332 8.18976 83.2161 7.8865 83.2161 7.56831V6.49445C83.1664 6.55411 83.057 6.6088 82.888 6.65851C82.7222 6.70492 82.53 6.74635 82.3113 6.7828C82.0958 6.81595 81.8854 6.84578 81.6799 6.87229C81.4777 6.89549 81.3136 6.91538 81.1877 6.93195C80.8828 6.97172 80.5977 7.03635 80.3326 7.12584C80.0707 7.21202 79.8586 7.34294 79.6962 7.5186C79.5371 7.69095 79.4576 7.92627 79.4576 8.22456C79.4576 8.63224 79.6084 8.94047 79.91 9.14928C80.2149 9.35477 80.601 9.45752 81.0684 9.45752ZM87.7042 5.73877V10.3325H86.5309V2.69616H87.6644V3.88934H87.7638C87.9428 3.50155 88.2146 3.19 88.5792 2.95468C88.9438 2.71604 89.4144 2.59672 89.9911 2.59672C90.5082 2.59672 90.9606 2.70278 91.3484 2.91491C91.7362 3.12371 92.0378 3.44189 92.2532 3.86945C92.4686 4.29369 92.5763 4.83063 92.5763 5.48025V10.3325H91.4031V5.55979C91.4031 4.95989 91.2473 4.49256 90.9357 4.1578C90.6242 3.81974 90.1966 3.6507 89.6531 3.6507C89.2785 3.6507 88.9438 3.7319 88.6488 3.89431C88.3571 4.05671 88.1268 4.29369 87.9577 4.60525C87.7887 4.9168 87.7042 5.29464 87.7042 5.73877ZM97.8027 13.3552C97.236 13.3552 96.7488 13.2823 96.3411 13.1365C95.9334 12.994 95.5937 12.8051 95.3219 12.5697C95.0534 12.3377 94.8397 12.0891 94.6806 11.824L95.6152 11.1677C95.7213 11.307 95.8555 11.466 96.0179 11.645C96.1803 11.8273 96.4024 11.9847 96.6841 12.1173C96.9692 12.2532 97.342 12.3212 97.8027 12.3212C98.4192 12.3212 98.928 12.172 99.329 11.8737C99.7301 11.5754 99.9306 11.1081 99.9306 10.4717V8.92059H99.8311C99.745 9.05979 99.6223 9.23214 99.4632 9.43763C99.3075 9.63981 99.0821 9.82045 98.7871 9.97954C98.4954 10.1353 98.101 10.2132 97.6039 10.2132C96.9874 10.2132 96.4339 10.0674 95.9434 9.7757C95.4561 9.48403 95.07 9.05979 94.785 8.50297C94.5033 7.94616 94.3624 7.27002 94.3624 6.47456C94.3624 5.69237 94.4999 5.01126 94.775 4.43124C95.0501 3.84791 95.4329 3.39715 95.9235 3.07897C96.414 2.75747 96.9808 2.59672 97.6238 2.59672C98.1209 2.59672 98.5153 2.67958 98.807 2.8453C99.102 3.00771 99.3274 3.19331 99.4831 3.40212C99.6422 3.60761 99.7649 3.77665 99.851 3.90922H99.9703V2.69616H101.104V10.5513C101.104 11.2075 100.955 11.7411 100.656 12.1521C100.361 12.5664 99.9637 12.8697 99.4632 13.0619C98.9661 13.2575 98.4126 13.3552 97.8027 13.3552ZM97.763 9.15922C98.2336 9.15922 98.6313 9.05151 98.9561 8.83607C99.281 8.62064 99.5279 8.31074 99.6969 7.90638C99.8659 7.50203 99.9505 7.01813 99.9505 6.45468C99.9505 5.90449 99.8676 5.41893 99.7019 4.998C99.5362 4.57707 99.2909 4.24729 98.9661 4.00866C98.6413 3.77002 98.2402 3.6507 97.763 3.6507C97.2658 3.6507 96.8515 3.77665 96.5201 4.02854C96.1919 4.28044 95.945 4.6185 95.7793 5.04275C95.6169 5.46699 95.5357 5.93763 95.5357 6.45468C95.5357 6.98498 95.6185 7.45397 95.7843 7.86164C95.9533 8.26599 96.2019 8.58418 96.53 8.81618C96.8614 9.04488 97.2724 9.15922 97.763 9.15922ZM106.791 1.24445V0.150701H114.428V1.24445H111.226V10.3325H109.993V1.24445H106.791ZM115.379 10.3325V2.69616H116.512V3.84956H116.592C116.731 3.47172 116.983 3.16514 117.347 2.92982C117.712 2.6945 118.123 2.57684 118.58 2.57684C118.666 2.57684 118.774 2.57849 118.903 2.58181C119.033 2.58512 119.13 2.5901 119.197 2.59672V3.78991C119.157 3.77996 119.066 3.76505 118.923 3.74516C118.784 3.72196 118.637 3.71036 118.481 3.71036C118.11 3.71036 117.778 3.78825 117.487 3.94403C117.198 4.09649 116.969 4.30861 116.8 4.58039C116.635 4.84885 116.552 5.15544 116.552 5.50013V10.3325H115.379ZM121.695 2.69616L123.525 5.81831L125.354 2.69616H126.706L124.24 6.51434L126.706 10.3325H125.354L123.525 7.36945L121.695 10.3325H120.343L122.769 6.51434L120.343 2.69616H121.695ZM134.625 2.69616L131.801 10.3325H130.608L127.784 2.69616H129.057L131.165 8.78138H131.244L133.352 2.69616H134.625ZM137.347 0.150701V10.3325H136.173V0.150701H137.347ZM140.351 10.4121C140.106 10.4121 139.895 10.3242 139.719 10.1486C139.544 9.97291 139.456 9.76244 139.456 9.51718C139.456 9.27191 139.544 9.06145 139.719 8.88579C139.895 8.71012 140.106 8.62229 140.351 8.62229C140.596 8.62229 140.807 8.71012 140.982 8.88579C141.158 9.06145 141.246 9.27191 141.246 9.51718C141.246 9.67958 141.204 9.82873 141.121 9.96462C141.042 10.1005 140.934 10.2099 140.798 10.2927C140.666 10.3723 140.517 10.4121 140.351 10.4121Z" fill="#BDBDBD"/>
</svg>
